#!OML:ASF H:\Terrain\Patient Classification 1\Terrain2\Thursday\justin.ASF
:FULLY-SPECIFIED
:DEGREES
3044
root 30.8088 18.1334 20.6192 1562.66 -81.0381 -485.482
lowerback 12.6652 1.95739 8.98216
upperback 4.22454 3.51393 4.4167
thorax -2.35058 1.6146 -0.902818
lowerneck -14.9826 -2.13516 -9.63341
upperneck 34.4279 -2.39952 3.00945
head 14.5384 -2.24534 2.43212
rclavicle -4.49253e-014 -6.83819e-014
rhumerus -27.1898 -7.47998 -78.8864
rradius 24.6371
rwrist -6.19994
rhand -21.1361 9.7382
rfingers 7.12502
rthumb 5.24298 -20.1769
lclavicle -4.49253e-014 -6.83819e-014
lhumerus -35.6587 4.37538 84.9157
lradius 34.9877
lwrist 3.80901
lhand -16.1822 21.4536
lfingers 7.12502
lthumb 10.0244 51.1949
rfemur 12.153 -0.515302 32.5897
rtibia 2.38542e-014
rfoot -5.68755 3.80245
rtoes 20.1744
lfemur -70.6169 22.7381 -7.26482
ltibia 126.621
lfoot -15.8705 -15.0012
ltoes 5.41041
3045
root 30.773 18.1156 20.6191 1561.64 -80.2692 -484.862
lowerback 13.1528 1.93546 9.72581
upperback 4.35026 3.60433 4.65158
thorax -2.43575 1.64491 -1.09149
lowerneck -14.9922 -2.11929 -9.9308
upperneck 34.425 -2.30936 3.08642
head 14.5398 -2.2354 2.53075
rclavicle -1.78906e-015 3.97569e-015
rhumerus -27.3399 -7.43765 -78.7954
rradius 24.6768
rwrist -6.0444
rhand -20.5187 9.56795
rfingers 7.12502
rthumb 5.839 -20.3316
lclavicle -1.78906e-015 3.97569e-015
lhumerus -35.7493 4.88149 84.6758
lradius 34.4621
lwrist 3.04272
lhand -15.6496 20.9128
lfingers 7.12502
lthumb 10.5382 50.6286
rfemur 12.6881 -0.220304 33.4273
rtibia -2.06736e-014
rfoot -5.88615 3.35832
rtoes 19.6467
lfemur -72.4786 24.36 -6.67888
ltibia 127.983
lfoot -15.7575 -16.1918
ltoes 5.21009
3046
root 30.7379 18.1284 20.6357 1567.27 -81.1237 -490.44
lowerback 13.1619 2.07827 8.92489
upperback 4.34036 3.70718 4.16279
thorax -2.46963 1.70879 -1.18125
lowerneck -14.8705 -2.13056 -9.87418
upperneck 34.3813 -2.37507 3.13334
head 14.4961 -2.24911 2.52934
rclavicle 2.5842e-015 5.48646e-014
rhumerus -27.4578 -7.53629 -78.9288
rradius 24.6329
rwrist -6.29306
rhand -20.1779 9.61616
rfingers 7.12502
rthumb 6.16811 -20.274
lclavicle 2.5842e-015 5.48646e-014
lhumerus -35.7639 4.75397 84.4445
lradius 33.8587
lwrist 2.72771
lhand -15.2441 20.3394
lfingers 7.12502
lthumb 10.9293 50.0349
rfemur 12.7434 0.170976 32.1037
rtibia 3.49861e-014
rfoot -6.03191 3.12066
rtoes 19.0893
lfemur -74.3627 24.4081 -8.81121
ltibia 128.757
lfoot -15.7923 -15.9849
ltoes 5.18353
3047
root 30.7021 18.1249 20.6432 1569.93 -81.1697 -493.306
lowerback 13.3841 2.19142 8.96176
upperback 4.44895 3.87054 3.86386
thorax -2.43737 1.79664 -1.54372
lowerneck -14.8831 -2.17692 -9.55495
upperneck 34.3456 -2.51244 3.06849
head 14.4855 -2.27158 2.42391
rclavicle 1.43125e-014 5.56597e-015
rhumerus -27.4975 -7.44389 -79.3014
rradius 24.6878
rwrist -6.92264
rhand -20.0175 9.90298
rfingers 7.12502
rthumb 6.32292 -19.9826
lclavicle 1.43125e-014 5.56597e-015
lhumerus -35.6849 4.36872 84.1953
lradius 33.3802
lwrist 2.79174
lhand -15.5989 20.4012
lfingers 7.12502
lthumb 10.5871 50.1145
rfemur 13.0883 0.540525 31.7756
rtibia -4.29375e-014
rfoot -6.07278 3.12583
rtoes 19.188
lfemur -76.0208 25.0178 -9.6656
ltibia 129.457
lfoot -15.9657 -16.1509
ltoes 4.88809
3048
root 30.6639 18.1142 20.6417 1571.09 -80.9254 -494.85
lowerback 13.7641 2.19329 9.13684
upperback 4.6361 3.90813 3.73781
thorax -2.41755 1.81627 -1.78909
lowerneck -15.0295 -2.15355 -9.42804
upperneck 34.3201 -2.49513 3.07895
head 14.5021 -2.24209 2.40851
rclavicle -2.76311e-014 -5.24792e-014
rhumerus -27.5888 -6.89688 -79.7756
rradius 24.9625
rwrist -7.52158
rhand -19.3236 10.0111
rfingers 7.12502
rthumb 6.99281 -19.8534
lclavicle -2.76311e-014 -5.24792e-014
lhumerus -35.644 4.71026 83.7698
lradius 32.9642
lwrist 2.44368
lhand -15.9479 20.6826
lfingers 7.12502
lthumb 10.2504 50.4128
rfemur 13.6433 0.883682 31.858
rtibia -5.88403e-014
rfoot -6.14303 3.02175
rtoes 18.9671
lfemur -77.4682 25.8285 -9.96955
ltibia 129.926
lfoot -16.078 -16.5432
ltoes 3.10865
3049
root 30.6246 18.1084 20.6376 1573.38 -80.9281 -497.497
lowerback 14.1531 2.17003 8.72269
upperback 4.75769 3.8501 3.76373
thorax -2.53729 1.77935 -1.5415
lowerneck -14.9707 -2.0148 -9.53993
upperneck 34.2628 -2.21383 2.94878
head 14.4409 -2.15403 2.4202
rclavicle -2.62396e-014 -3.26007e-014
rhumerus -27.7751 -6.14309 -79.9161
rradius 25.3013
rwrist -7.92168
rhand -18.5619 9.88364
rfingers 7.12502
rthumb 7.72799 -19.9551
lclavicle -2.62396e-014 -3.26007e-014
lhumerus -35.7572 5.8424 83.4248
lradius 32.4472
lwrist 1.63853
lhand -16.0014 20.9348
lfingers 7.12502
lthumb 10.1988 50.6676
rfemur 14.1867 1.20391 31.6174
rtibia 3.02153e-014
rfoot -6.20979 2.86183
rtoes 18.5447
lfemur -78.7624 26.2888 -10.6148
ltibia 130.113
lfoot -16.259 -16.7077
ltoes -0.189
3050
root 30.5805 18.1082 20.6373 1576.82 -81.0764 -501.252
lowerback 14.4598 2.31973 8.23479
upperback 4.83725 4.00553 3.64997
thorax -2.63492 1.85331 -1.42819
lowerneck -14.7811 -2.01696 -9.56949
upperneck 34.257 -2.20688 2.86199
head 14.3952 -2.16984 2.39081
rclavicle 4.41302e-014 4.69132e-014
rhumerus -27.9849 -6.21721 -79.8126
rradius 25.4718
rwrist -7.90251
rhand -18.5834 9.95647
rfingers 7.12502
rthumb 7.70729 -19.8831
lclavicle 4.41302e-014 4.69132e-014
lhumerus -35.8081 6.10648 83.2588
lradius 31.8842
lwrist 1.16679
lhand -15.4444 21.0996
lfingers 7.12502
lthumb 10.7361 50.8052
rfemur 14.6961 1.54756 31.0959
rtibia 3.18055e-015
rfoot -6.2209 2.79909
rtoes 18.9253
lfemur -79.8851 26.3974 -11.5597
ltibia 130.069
lfoot -16.4809 -16.6713
ltoes -2.78064
3051
root 30.534 18.1011 20.6376 1578.52 -80.8275 -503.239
lowerback 14.7068 2.51164 8.40464
upperback 4.94505 4.28849 3.4725
thorax -2.60146 1.99663 -1.75869
lowerneck -14.7002 -2.12256 -9.63221
upperneck 34.2306 -2.4499 3.13798
head 14.3879 -2.24311 2.47592
rclavicle -2.98177e-015 1.03368e-014
rhumerus -28.072 -6.33992 -79.9881
rradius 25.4511
rwrist -8.01513
rhand -19.0561 10.2883
rfingers 7.12502
rthumb 7.25104 -19.5675
lclavicle -2.98177e-015 1.03368e-014
lhumerus -35.7467 5.77406 83.0373
lradius 31.4158
lwrist 1.02752
lhand -14.0443 21.1441
lfingers 7.12502
lthumb 12.0864 50.7751
rfemur 15.1867 1.97241 31.0711
rtibia 3.49861e-014
rfoot -6.27899 2.74025
rtoes 19.2405
lfemur -81.057 26.7115 -11.9492
ltibia 129.882
lfoot -16.2577 -17.0836
ltoes -2.95977
3052
root 30.4906 18.0871 20.6354 1578.09 -80.2266 -503.01
lowerback 14.9354 2.5339 8.83632
upperback 5.05441 4.38048 3.56252
thorax -2.56877 2.03879 -1.92288
lowerneck -14.7122 -2.06126 -9.73976
upperneck 34.1791 -2.3381 3.19111
head 14.3602 -2.19965 2.53446
rclavicle -2.24627e-014 -1.35174e-014
rhumerus -28.0136 -5.59625 -80.295
rradius 25.4039
rwrist -8.27317
rhand -19.0302 10.6336
rfingers 7.12502
rthumb 7.27601 -19.2213
lclavicle -2.24627e-014 -1.35174e-014
lhumerus -35.8 6.43353 82.7188
lradius 30.9962
lwrist 0.616424
lhand -13.1963 21.0852
lfingers 7.12502
lthumb 12.904 50.6662
rfemur 15.5933 2.42112 31.6027
rtibia 1.11319e-014
rfoot -6.34949 2.58238
rtoes 19.1452
lfemur -82.308 27.1714 -11.7188
ltibia 129.516
lfoot -15.4508 -17.8036
ltoes -1.7144
3053
root 30.4465 18.0742 20.639 1578.1 -79.9389 -503.196
lowerback 15.1101 2.43892 9.01315
upperback 5.16325 4.27978 3.65322
thorax -2.54708 1.98557 -1.91464
lowerneck -14.7586 -1.90805 -9.64295
upperneck 34.1804 -2.02151 2.86842
head 14.3411 -2.09611 2.4361
rclavicle 2.04748e-014 1.19271e-014
rhumerus -27.9918 -4.84755 -80.4684
rradius 25.5328
rwrist -8.1085
rhand -18.3859 11.0441
rfingers 7.12502
rthumb 7.89793 -18.7884
lclavicle 2.04748e-014 1.19271e-014
lhumerus -35.8655 7.33817 82.4721
lradius 30.4866
lwrist 0.0883613
lhand -13.4084 21.0687
lfingers 7.12502
lthumb 12.6995 50.6625
rfemur 15.966 2.69701 31.8324
rtibia -2.70347e-014
rfoot -6.41252 2.41153
rtoes 18.962
lfemur -83.3521 27.0198 -11.8582
ltibia 128.915
lfoot -14.7446 -17.8634
ltoes -1.61849
3054
root 30.3993 18.0634 20.6434 1579.06 -79.9736 -504.349
lowerback 15.2349 2.40346 9.00017
upperback 5.24274 4.23189 3.54804
thorax -2.52618 1.96417 -2.0145
lowerneck -14.723 -1.87543 -9.50701
upperneck 34.2035 -1.97208 2.71972
head 14.3361 -2.08008 2.35933
rclavicle -1.66979e-014 1.66979e-014
rhumerus -28.1295 -4.68045 -80.642
rradius 25.8265
rwrist -7.80816
rhand -18.1562 11.2167
rfingers 7.12502
rthumb 8.11954 -18.6073
lclavicle -1.66979e-014 1.66979e-014
lhumerus -35.8836 7.61272 82.239
lradius 29.9067
lwrist -0.40466
lhand -13.6502 20.8586
lfingers 7.12502
lthumb 12.4664 50.4668
rfemur 16.3432 2.85837 31.6751
rtibia -2.06736e-014
rfoot -6.55883 2.31183
rtoes 18.2769
lfemur -84.3269 26.52 -12.6659
ltibia 128.223
lfoot -15.3704 -16.6198
ltoes -8.49515
